<svg xmlns="http://www.w3.org/2000/svg" viewBox="0 0 500 500"><g id="freepik--background-complete--inject-33"><rect y="382.4" width="500" height="0.25" style="fill:#ebebeb"></rect><rect x="416.78" y="398.49" width="33.12" height="0.25" style="fill:#ebebeb"></rect><rect x="322.53" y="401.21" width="8.69" height="0.25" style="fill:#ebebeb"></rect><rect x="396.59" y="389.21" width="19.19" height="0.25" style="fill:#ebebeb"></rect><rect x="52.46" y="390.89" width="43.19" height="0.25" style="fill:#ebebeb"></rect><rect x="104.56" y="390.89" width="6.33" height="0.25" style="fill:#ebebeb"></rect><rect x="131.47" y="395.11" width="93.68" height="0.25" style="fill:#ebebeb"></rect><path d="M237,337.8H43.91a5.71,5.71,0,0,1-5.7-5.71V60.66A5.71,5.71,0,0,1,43.91,55H237a5.71,5.71,0,0,1,5.71,5.71V332.09A5.71,5.71,0,0,1,237,337.8ZM43.91,55.2a5.46,5.46,0,0,0-5.45,5.46V332.09a5.46,5.46,0,0,0,5.45,5.46H237a5.47,5.47,0,0,0,5.46-5.46V60.66A5.47,5.47,0,0,0,237,55.2Z" style="fill:#ebebeb"></path><path d="M453.31,337.8H260.21a5.72,5.72,0,0,1-5.71-5.71V60.66A5.72,5.72,0,0,1,260.21,55h193.1A5.71,5.71,0,0,1,459,60.66V332.09A5.71,5.71,0,0,1,453.31,337.8ZM260.21,55.2a5.47,5.47,0,0,0-5.46,5.46V332.09a5.47,5.47,0,0,0,5.46,5.46h193.1a5.47,5.47,0,0,0,5.46-5.46V60.66a5.47,5.47,0,0,0-5.46-5.46Z" style="fill:#ebebeb"></path><path d="M394.87,145s1.1-7.27-4.2-11.94-4.84-7.43-3.32-7.79,2.91,4.3,5.24,5.58c0,0,.07-6.64-2.29-9.09s-3.61-8.75-1.36-8.86,2.48,3.74,2.95,6.48,3,6.58,3,6.58.49-5.95,2-8.4-2.55-8-1-10.49,4.37,2.22,4.14,7.46-3.73,10.84-2.91,16.32c0,0,1.54-3.85,2.92-4.2s2.79-2.89,3.72-3.83,2.1,2.32,0,5.35-7.46,11.14-6.64,17.69Z" style="fill:#e6e6e6"></path><path d="M391.7,141.69,390,152.59a5.54,5.54,0,0,0,5.47,6.41h1.86a5.55,5.55,0,0,0,5.47-6.41L401,141.69Z" style="fill:#e6e6e6"></path><rect x="295.21" y="154.98" width="122.75" height="6.31" style="fill:#e0e0e0"></rect><rect x="300.86" y="131.73" width="5.41" height="23.25" style="fill:#ebebeb"></rect><rect x="327.01" y="131.73" width="5.41" height="23.25" style="fill:#ebebeb"></rect><rect x="358.71" y="131.44" width="5.41" height="23.25" transform="translate(-19.05 63.46) rotate(-9.78)" style="fill:#ebebeb"></rect><rect x="307.56" y="134.79" width="5.41" height="20.18" style="fill:#ebebeb"></rect><rect x="319.99" y="134.79" width="5.41" height="20.18" style="fill:#ebebeb"></rect><rect x="351.37" y="134.79" width="5.41" height="20.18" style="fill:#ebebeb"></rect><rect x="336.37" y="134.45" width="5.41" height="20.18" transform="translate(-23.28 76.99) rotate(-12.53)" style="fill:#ebebeb"></rect><rect x="314.94" y="130.58" width="2.7" height="24.4" style="fill:#ebebeb"></rect><rect x="347.11" y="130.58" width="2.7" height="24.4" style="fill:#ebebeb"></rect><rect x="295.21" y="202.06" width="122.75" height="6.31" transform="translate(713.17 410.43) rotate(180)" style="fill:#e0e0e0"></rect><rect x="406.9" y="178.81" width="5.41" height="23.25" transform="translate(819.22 380.87) rotate(180)" style="fill:#ebebeb"></rect><rect x="380.76" y="178.81" width="5.41" height="23.25" transform="translate(766.92 380.87) rotate(180)" style="fill:#ebebeb"></rect><rect x="349.06" y="178.52" width="5.41" height="23.25" transform="translate(666.11 437.28) rotate(-170.22)" style="fill:#ebebeb"></rect><rect x="400.2" y="181.88" width="5.41" height="20.18" transform="translate(805.82 383.94) rotate(180)" style="fill:#ebebeb"></rect><rect x="387.77" y="181.88" width="5.41" height="20.18" transform="translate(780.96 383.94) rotate(180)" style="fill:#ebebeb"></rect><rect x="356.4" y="181.88" width="5.41" height="20.18" transform="translate(718.21 383.94) rotate(180)" style="fill:#ebebeb"></rect><rect x="371.4" y="181.53" width="5.41" height="20.18" transform="translate(697.74 459.82) rotate(-167.47)" style="fill:#ebebeb"></rect><rect x="395.53" y="177.66" width="2.7" height="24.4" transform="translate(793.76 379.72) rotate(180)" style="fill:#ebebeb"></rect><rect x="363.36" y="177.66" width="2.7" height="24.4" transform="translate(729.43 379.72) rotate(180)" style="fill:#ebebeb"></rect><rect x="306.99" y="183.66" width="26.35" height="18.19" transform="translate(640.33 385.51) rotate(180)" style="fill:#ebebeb"></rect><rect x="79.88" y="114.7" width="5.18" height="108.97" transform="translate(164.94 338.38) rotate(180)" style="fill:#e0e0e0"></rect><rect x="80.4" y="114.7" width="128.55" height="108.97" style="fill:#e0e0e0"></rect><rect x="79.88" y="114.7" width="132.21" height="108.97" style="fill:#f0f0f0"></rect><rect x="84.04" y="118.18" width="123.73" height="100.49" style="fill:#fff"></rect><rect x="205.06" y="118.18" width="2.71" height="100.49" style="fill:#e0e0e0"></rect><rect x="143.22" y="131.02" width="2.71" height="121.55" transform="translate(-47.22 336.37) rotate(-90)" style="fill:#e0e0e0"></rect><rect x="82.59" y="185.89" width="125.18" height="4.55" style="fill:#f0f0f0"></rect><circle cx="249.21" cy="107.6" r="19.72" style="fill:#e0e0e0"></circle><path d="M261.07,95.74a16.77,16.77,0,1,1-23.72,0A16.77,16.77,0,0,1,261.07,95.74Z" style="fill:#f0f0f0"></path><polyline points="240.52 100.03 248.81 108.32 240.2 110.7" style="fill:#f0f0f0"></polyline><path d="M240.2,111.54a.83.83,0,0,1-.8-.62.84.84,0,0,1,.58-1l7.22-2-7.28-7.27a.84.84,0,1,1,1.19-1.19l8.29,8.29a.87.87,0,0,1,.22.81.84.84,0,0,1-.59.59l-8.6,2.39A.91.91,0,0,1,240.2,111.54Z" style="fill:#e0e0e0"></path></g><g id="freepik--Shadow--inject-33"><ellipse id="freepik--path--inject-33" cx="250" cy="416.24" rx="215.03" ry="11.32" style="fill:#f5f5f5"></ellipse></g><g id="freepik--Lamp--inject-33"><rect x="402.65" y="224.99" width="4.75" height="187.66" transform="translate(810.05 637.64) rotate(180)" style="fill:#263238"></rect><rect x="402.65" y="224.99" width="4.75" height="187.66" transform="translate(810.05 637.64) rotate(180)" style="fill:#fff;isolation:isolate;opacity:0.2"></rect><path d="M398.3,400.42h13.45a0,0,0,0,1,0,0v8.66a4.79,4.79,0,0,1-4.79,4.79h-3.88a4.79,4.79,0,0,1-4.79-4.79v-8.66A0,0,0,0,1,398.3,400.42Z" transform="translate(810.05 814.3) rotate(180)" style="fill:#263238"></path><path d="M387.1,206.47H423c.79,30.23,12,46.33,12,46.33H375.09S386.3,236.7,387.1,206.47Z" style="fill:#407BFF"></path><path d="M398.3,400.42h13.45a0,0,0,0,1,0,0v8.66a4.79,4.79,0,0,1-4.79,4.79h-3.88a4.79,4.79,0,0,1-4.79-4.79v-8.66A0,0,0,0,1,398.3,400.42Z" transform="translate(810.05 814.3) rotate(180)" style="fill:#fff;isolation:isolate;opacity:0.30000000000000004"></path><path d="M385.51,409.83h39a0,0,0,0,1,0,0v0a5.63,5.63,0,0,1-5.63,5.63H391.14a5.63,5.63,0,0,1-5.63-5.63v0A0,0,0,0,1,385.51,409.83Z" transform="translate(810.05 825.3) rotate(180)" style="fill:#263238"></path><path d="M385.51,409.83h39a0,0,0,0,1,0,0v0a5.63,5.63,0,0,1-5.63,5.63H391.14a5.63,5.63,0,0,1-5.63-5.63v0A0,0,0,0,1,385.51,409.83Z" transform="translate(810.05 825.3) rotate(180)" style="fill:#fff;isolation:isolate;opacity:0.4"></path><path d="M375.09,252.8H435s-3.63-5.21-6.91-15.28a109.53,109.53,0,0,1-5.1-31.06H387.09a109.85,109.85,0,0,1-5.09,31C378.72,247.58,375.09,252.8,375.09,252.8Z" style="fill:#fff;isolation:isolate;opacity:0.5"></path><path d="M382,237.51a28.56,28.56,0,0,0,46.05,0,109.53,109.53,0,0,1-5.1-31.06H387.09A109.85,109.85,0,0,1,382,237.51Z" style="fill:#fff;isolation:isolate;opacity:0.2"></path></g><g id="freepik--Characters--inject-33"><path d="M120.78,261.85H289a31.7,31.7,0,0,1,31.7,31.7v67.7a0,0,0,0,1,0,0H89.08a0,0,0,0,1,0,0v-67.7A31.7,31.7,0,0,1,120.78,261.85Z" style="fill:#263238"></path><path d="M120.78,261.85H289a31.7,31.7,0,0,1,31.7,31.7v67.7a0,0,0,0,1,0,0H89.08a0,0,0,0,1,0,0v-67.7A31.7,31.7,0,0,1,120.78,261.85Z" style="fill:#fff;isolation:isolate;opacity:0.6000000000000001"></path><path d="M339.55,283.46h23.73a18.84,18.84,0,0,1,18.84,18.84V415.47a0,0,0,0,1,0,0H320.71a0,0,0,0,1,0,0V302.3A18.84,18.84,0,0,1,339.55,283.46Z" style="fill:#263238"></path><path d="M339.55,283.46h23.73a18.84,18.84,0,0,1,18.84,18.84V415.47a0,0,0,0,1,0,0H320.71a0,0,0,0,1,0,0V302.3A18.84,18.84,0,0,1,339.55,283.46Z" style="fill:#fff;isolation:isolate;opacity:0.7000000000000001"></path><path d="M382.12,415.47H346.8V301.13a17.67,17.67,0,0,1,17.66-17.67h0a17.66,17.66,0,0,1,17.66,17.67Z" style="fill:#fff;isolation:isolate;opacity:0.2"></path><rect x="110.77" y="371.29" width="228.59" height="44.18" style="fill:#263238"></rect><rect x="110.77" y="371.29" width="228.59" height="44.18" style="fill:#fff;isolation:isolate;opacity:0.7000000000000001"></rect><rect x="110.77" y="371.29" width="228.59" height="20.32" style="opacity:0.1"></rect><rect x="100.67" y="342.72" width="256.66" height="46.35" rx="19.15" style="fill:#263238"></rect><rect x="100.67" y="342.72" width="256.66" height="46.35" rx="19.15" style="fill:#fff;isolation:isolate;opacity:0.7000000000000001"></rect><path d="M133.1,342.72H113.36c-6.83,0-12.37,7.44-12.37,16.63v13.09c0,9.18,5.54,16.63,12.37,16.63H133.1c6.83,0,12.36-7.45,12.36-16.63V359.35C145.46,350.16,139.93,342.72,133.1,342.72Z" style="isolation:isolate;opacity:0.1"></path><path d="M333.56,283.78l-.46,7s-19.65,1.57-27.85-1.39a23.47,23.47,0,0,1-7.49-5.08,81.09,81.09,0,0,1-10.38-12.36l.18-1.71,1.84-17.13c8.56,3.57,21,21.51,21,21.51S328.41,280.46,333.56,283.78Z" style="fill:#407BFF"></path><path d="M326,403.81l-6.25-1.19,2.88-24.83,4.95-42.62L286.77,334l-2.62-17.28-.9-5.89s7.82.6,17.78,1.8,21.7,2.95,30.25,5.33h0a34.3,34.3,0,0,1,9,3.55C351.26,328.67,326,403.81,326,403.81Z" style="fill:#e4897b"></path><path d="M322.64,377.79l4.95-42.62L286.77,334l-2.62-17.28L301,312.62c9.81,1.19,21.7,2.95,30.25,5.33-.4,0-10.16.17-16.89,4.85,0,0,12.49,3.64,20.14,11.17C339.57,338.94,329.85,362.41,322.64,377.79Z" style="isolation:isolate;opacity:0.2"></path><path d="M276.14,314.37s47.57,8.95,56.31,18.69-37.22,77-37.22,77l-5.74-2.75,24.92-63.16-43.43.13Z" style="fill:#e4897b"></path><path d="M320.8,314.89c-11.46,6.73-25.9,30.56-25.9,30.56s-57.39,17.66-28.35-40.19l29.3-2.26,1.78,8.36C310.8,313,320.8,314.89,320.8,314.89Z" style="fill:#263238"></path><path d="M320.8,314.89c-11.46,6.73-25.9,30.56-25.9,30.56s-57.39,17.66-28.35-40.19l29.3-2.26,1.78,8.36C310.8,313,320.8,314.89,320.8,314.89Z" style="fill:#fff;isolation:isolate;opacity:0.30000000000000004"></path><polygon points="266.74 301.28 266.25 305.68 296.54 306.71 297.12 301.51 266.74 301.28" style="fill:#263238"></polygon><polygon points="266.74 301.28 266.25 305.68 296.54 306.71 297.12 301.51 266.74 301.28" style="fill:#fff;isolation:isolate;opacity:0.2"></polygon><rect x="275.3" y="300.5" width="1.5" height="7.64" transform="translate(18.58 -15.87) rotate(3.41)" style="fill:#263238"></rect><rect x="283.37" y="301.44" width="6.63" height="5.03" transform="translate(6.53 -6.03) rotate(1.22)" style="fill:#fff"></rect><rect x="293.87" y="300.52" width="1.5" height="7.64" transform="translate(18.66 -17.01) rotate(3.42)" style="fill:#263238"></rect><path d="M331.92,283.89l8.93,1.52-2.56,7.49s-6.39-.19-8.16-5.16Z" style="fill:#e4897b"></path><polygon points="345.95 289.35 342.7 294.47 338.29 292.9 340.85 285.41 345.95 289.35" style="fill:#e4897b"></polygon><path d="M259,319.76s4.16-37.74-7.13-65c0,0,15.44-4.36,37.49-1.66,0,0,8.27,19.42,5.05,49.13l5.12,9.56S275.76,315.93,259,319.76Z" style="fill:#407BFF"></path><path d="M265.1,248.71s5.59-1.47,15.22,2.2c0,0-1.74,6.87-8.07,4.9S265.1,248.71,265.1,248.71Z" style="fill:#407BFF"></path><path d="M265.1,248.71s5.59-1.47,15.22,2.2c0,0-1.74,6.87-8.07,4.9S265.1,248.71,265.1,248.71Z" style="opacity:0.2"></path><path d="M286.75,218.08s-12.84-5.44-18,0c-10.74,11.27-1.17,29.66-1.17,29.66s11.48-1.5,26.63,6.06a32.11,32.11,0,0,0,4.7-25.92C296.67,218.9,286.75,218.08,286.75,218.08Z" style="fill:#263238"></path><path d="M271.54,258.65c-2.93-2.85-5-5.26-5-5.26,3.57-2,4.07-6.13,4-8.82a15.51,15.51,0,0,0-.28-2.53l8.08,3.76a25.09,25.09,0,0,0-1.24,3.49,10.76,10.76,0,0,0-.43,2.69c-.07,2.68,1.37,3.09,1.37,3.09a.44.44,0,0,0,0,.1C278.9,258.87,274.26,261.3,271.54,258.65Z" style="fill:#e4897b"></path><path d="M277.11,249.29a10.76,10.76,0,0,0-.43,2.69c-3.26-1.3-5.13-4.65-6.13-7.41a15.51,15.51,0,0,0-.28-2.53l8.08,3.76A25.09,25.09,0,0,0,277.11,249.29Z" style="isolation:isolate;opacity:0.2"></path><path d="M286,224.16c8.39,4.33,7,8.75,3.88,16-3.9,9-9,14.23-16.54,8C263.15,239.63,274.75,218.36,286,224.16Z" style="fill:#e4897b"></path><path d="M285.7,237.49a16.42,16.42,0,0,0,.52,3.83,2.09,2.09,0,0,1-2.18-.16Z" style="fill:#de5753"></path><path d="M281.85,234.79c-.28.56-.81.87-1.18.69s-.46-.79-.18-1.36.8-.87,1.18-.68S282.12,234.23,281.85,234.79Z" style="fill:#263238"></path><path d="M281.5,233.39l1.46.12S281.84,234.24,281.5,233.39Z" style="fill:#263238"></path><path d="M288.9,238.09c-.27.57-.8.88-1.18.69s-.45-.79-.18-1.35.81-.87,1.18-.69S289.18,237.53,288.9,238.09Z" style="fill:#263238"></path><path d="M288.55,236.69l1.46.12S288.9,237.54,288.55,236.69Z" style="fill:#263238"></path><path d="M284.2,230.4a.37.37,0,0,1-.18-.05,3.61,3.61,0,0,0-3.15-.47.33.33,0,0,1-.26-.6,4.27,4.27,0,0,1,3.78.53.32.32,0,0,1,.08.45A.32.32,0,0,1,284.2,230.4Z" style="fill:#263238"></path><path d="M291.68,234.62a.33.33,0,0,1-.28-.16,3.22,3.22,0,0,0-2.17-1.79.33.33,0,0,1-.28-.37.34.34,0,0,1,.36-.28,3.88,3.88,0,0,1,2.66,2.12.32.32,0,0,1-.13.44A.32.32,0,0,1,291.68,234.62Z" style="fill:#263238"></path><path d="M272.62,232.21s6.05-3.92,7.8-8.46c0,0,7.32-2.46,11.24,5.73,0,0,.31,6-1.38,9.71,0,0,7.58-11.42-3.92-17.72s-20.28,10.75-16.9,18.94C269.46,240.41,268.86,234.68,272.62,232.21Z" style="fill:#263238"></path><path d="M281.23,244.68h-.08s-3.43-.92-3.29-4.29a.33.33,0,1,1,.65,0c-.12,2.84,2.77,3.63,2.8,3.64a.32.32,0,0,1-.08.63Z" style="fill:#263238"></path><path d="M280.42,223.75s9.51.56,12.3,7.74c0,0,5.09-4.94-.72-10.52s-16.35-2.31-16.35-2.31Z" style="fill:#263238"></path><path d="M273.76,232.06a7.19,7.19,0,0,1-1.56-.18.21.21,0,0,1-.17-.25.22.22,0,0,1,.26-.17,5.41,5.41,0,0,0,4.63-.9c3.34-2.61,3.6-9.16,3.6-9.23a.2.2,0,0,1,.22-.21.22.22,0,0,1,.21.23c0,.27-.27,6.82-3.76,9.55A5.45,5.45,0,0,1,273.76,232.06Z" style="fill:#263238"></path><path d="M273,234.22a3.34,3.34,0,0,0-1.79-4.37c-2.22-.86-5.45,2.92-.77,6.67C271.1,237.05,271.9,236.54,273,234.22Z" style="fill:#e4897b"></path><path d="M293.45,239.16h0a.21.21,0,0,1-.2-.23c.84-11.05-10.94-15.51-11.06-15.54a.22.22,0,0,1-.15-.27.21.21,0,0,1,.26-.15c.12,0,12.25,4.59,11.38,16A.2.2,0,0,1,293.45,239.16Z" style="fill:#263238"></path><path d="M299.84,244.8h-.07a.21.21,0,0,1-.14-.27c0-.14,4.36-13.67-2.68-21.65a14,14,0,0,0-12.05-4.51.22.22,0,0,1-.08-.43,14.41,14.41,0,0,1,12.45,4.65c7.21,8.17,2.82,21.94,2.77,22.07A.2.2,0,0,1,299.84,244.8Z" style="fill:#263238"></path><path d="M264.57,250.94l.53-2.23a16.69,16.69,0,0,0,9.76,4c4.06.31,5.46-1.76,5.46-1.76l2.94,5.7s-4.2,18.32-21.27,1.11" style="fill:#407BFF"></path><path d="M302.34,408.34a8.42,8.42,0,0,1-3.24-1.15l0,0a.31.31,0,0,1-.07-.09h0v0h0a.2.2,0,0,1,0-.11h0s0,0,0,0,2.1-3.09,3.59-2.24c.37.21.42.46.4.62-.06.45-.78.87-1.59,1.22a2.77,2.77,0,0,1,1.74.31.67.67,0,0,1,.26.57.91.91,0,0,1-.46.83A1.25,1.25,0,0,1,302.34,408.34Zm-2.52-1.24c.91.45,2.37,1.06,2.95.73.1-.05.23-.16.24-.48a.27.27,0,0,0-.1-.22C302.47,406.77,301,406.89,299.82,407.1Zm2.21-2.18c-.75,0-1.71,1-2.29,1.72,1.43-.44,2.82-1.05,2.86-1.42,0-.08-.13-.17-.19-.21A.82.82,0,0,0,302,404.92Z" style="fill:#577afa"></path><path d="M289.9,404.88c.21-.66,8.38.14,8.38.14s3.62,5.22,8.25,6.53,1,4.1-4.56,3.91L288.21,415C284.26,414.85,287.7,411.68,289.9,404.88Z" style="fill:#2e353a"></path><path d="M331.68,405.41c-1.08,0-3-1.9-3.37-2.3a.3.3,0,0,1,0-.08l0-.06a.19.19,0,0,1,0-.12h0c.06-.07,1.39-1.64,2.61-1.69a1.28,1.28,0,0,1,1,.4q.44.45.27.84c-.18.41-.91.61-1.69.71a3.44,3.44,0,0,1,1.72.85.93.93,0,0,1,.22.68.79.79,0,0,1-.5.75A.61.61,0,0,1,331.68,405.41ZM329,403.24c1,.92,2.26,1.9,2.75,1.73,0,0,.17-.06.21-.4a.47.47,0,0,0-.12-.36A5.53,5.53,0,0,0,329,403.24Zm1.93-1.68h0a3.66,3.66,0,0,0-2,1.2c1.33,0,2.69-.2,2.84-.55.05-.11-.09-.28-.18-.38A.86.86,0,0,0,331,401.56Z" style="fill:#577afa"></path><path d="M319.89,397.78c.25-.63,7.87,2.78,7.87,2.78s3,6.68,7.23,9.52.6,4.66-4.61,2.71-9.19-3.43-12.89-4.82S317.28,404.3,319.89,397.78Z" style="fill:#2e353a"></path><path d="M279.71,271.16l-.12,0c-12.69-7.65-16.13-18.18-16.17-18.29a.22.22,0,0,1,.15-.27.23.23,0,0,1,.27.14c0,.11,3.39,10.37,15.75,17.91.57-1.65,3.68-11.2,1.49-17.77a.23.23,0,0,1,.14-.28.23.23,0,0,1,.28.14c2.43,7.32-1.55,18.2-1.59,18.31a.21.21,0,0,1-.13.13Z" style="fill:#263238"></path><path d="M280.64,271.88c0,.76-.4,1.38-.89,1.38s-.88-.62-.88-1.38.39-1.39.88-1.39S280.64,271.11,280.64,271.88Z" style="fill:#fff"></path><path d="M251.9,254.76c-11.4.76-30.8,2.23-32.69,7.1s3.44,9.83,14.19,12.28,23.82-.88,23.82-.88,1.12-2,1.13-8.36S251.9,254.76,251.9,254.76Z" style="fill:#407BFF"></path><path d="M248.74,268a68.2,68.2,0,0,0-11.45-5.87s12,.52,18.14,5.87S248.74,268,248.74,268Z" style="isolation:isolate;opacity:0.2"></path><path d="M297.76,284.3a81.09,81.09,0,0,1-10.38-12.36l.18-1.71a20.54,20.54,0,0,1,1.71-5.33C289.5,264.41,296.84,273.06,297.76,284.3Z" style="isolation:isolate;opacity:0.2"></path><path d="M226,317.94l-25.32,16.7-2.94-3.94-16.38-22L173,297.41l-9.6,9.68L130,340.83l-5.18-5.21s37.11-60.69,50.31-59.35a3.65,3.65,0,0,1,.81.17C188.33,280.55,226,317.94,226,317.94Z" style="fill:#eec1bb"></path><path d="M115.05,344.11c6.19.07,6.83-.32,10.34-.39,3-.08,3.35.57,6.38.61,2,0,2.78-2.25,2.43-4-.22-1-.62-2.21-.82-3.49a1.36,1.36,0,0,0-1.36-1.19l-6.44-.08a1.93,1.93,0,0,0-1.36.58,13.46,13.46,0,0,1-9.53,4.38C111.28,340.78,112.57,344.08,115.05,344.11Z" style="fill:#eec1bb"></path><path d="M226,317.94l-25.32,16.7-2.94-3.94-4.08-8.76,4.69-9.81-8.46-12.24s-3.72,4.26-8.53,8.79L173,297.41l-9.6,9.68c1.89-10.06,6.91-23.77,11.69-30.82a3.65,3.65,0,0,1,.81.17C188.33,280.55,226,317.94,226,317.94Z" style="opacity:0.1"></path><path d="M305.43,278.68s-.79-5.59,8.31-4.39,10.89,10.75,11.37,14.6-2.1,6.14,3,11,9.26,10.47,4.52,14.31c-6.24,5.07-17.59-.52-17.59-.52Z" style="fill:#263238"></path><path d="M323.32,293.7c1.21,2.77,4.18,5.23,2.58,8.15s-5.49,10.77-9,11.5-5.9.47-5.56,2.07-18.62,3.86-18.62,3.86l2.43-11.78a13.29,13.29,0,0,1-7.61-5c-2.8-4-8.12-5.52-7.78-8.81s3.26-6.14,6.18-4.81,3.78,1.55,5.78-2.79,8-10.59,16.12-8.4S323.32,293.7,323.32,293.7Z" style="fill:#263238"></path><path d="M304,323.91a16.74,16.74,0,0,1-3.07-.29.21.21,0,1,1,.09-.42s4.81.95,7.29-.75a3.3,3.3,0,0,0,1.42-2.26c.7-4.28,7.12-3.43,14.55-2.46,1.45.19,2.94.39,4.45.56,4.16.47,5.82-1.16,6.48-2.6,1.19-2.61-.06-6.79-2.79-9.31a.22.22,0,0,1,0-.31.23.23,0,0,1,.31,0c2.91,2.68,4.18,7,2.89,9.81-1,2.22-3.47,3.24-6.92,2.85-1.51-.17-3-.36-4.46-.55-7.2-1-13.43-1.77-14.06,2.09a3.72,3.72,0,0,1-1.6,2.54A8.22,8.22,0,0,1,304,323.91Z" style="fill:#263238"></path><path d="M266.18,248.64l-2-7.5,6.74-.67s2.13,5-1.11,8.19Z" style="fill:#eec1bb"></path><polygon points="265.44 235.77 270.59 236.47 270.93 240.47 264.19 241.15 265.44 235.77" style="fill:#eec1bb"></polygon><path d="M271.7,297.44a121.16,121.16,0,0,1-10.14-10.13c-3.46-4.08-8.17-9-7.51-14.88.56-5.48,2.55-9.79,4.8-14.46a98.12,98.12,0,0,1,7.34-12.28,2.24,2.24,0,0,1,3.88,2.19c-1.86,4.16-3.63,8.46-5.18,12.69-1.32,3.83-2.9,8.35-2.94,12.2,0,1.91.77,2.36,1.75,3.73,4.15,5.05,9.34,9.74,14.08,14.31a4.5,4.5,0,0,1-6.08,6.63Z" style="fill:#ebc0bb"></path><path d="M302.94,312.37s-5.12,5.57-15.49,11h0a92.72,92.72,0,0,1-35.95,10.11l-11.26-29.35L255.79,298s4.64-7.83,13.61-5.38c0,0,5-3.91,8.76-1.61,0,0,7.09,6.49,18.12,15.79Q299.42,309.46,302.94,312.37Z" style="fill:#407BFF"></path><path d="M302.94,312.37s-5.12,5.57-15.49,11h0a92.72,92.72,0,0,1-35.95,10.11l-11.26-29.35L255.79,298s4.64-7.83,13.61-5.38c0,0,5-3.91,8.76-1.61,0,0,7.09,6.49,18.12,15.79Q299.42,309.46,302.94,312.37Z" style="fill:#fff;isolation:isolate;opacity:0.6000000000000001"></path><path d="M310.13,305.16l-7.53-1.85,2.65-6.24s5.45.56,6.65,4.91Z" style="fill:#eec1bb"></path><polygon points="298.49 299.63 301.58 295.45 305.25 297.07 302.6 303.31 298.49 299.63" style="fill:#eec1bb"></polygon><g style="opacity:0.2"><path d="M310.13,305.16l-7.53-1.85,2.65-6.24s5.45.56,6.65,4.91Z"></path><polygon points="298.49 299.63 301.58 295.45 305.25 297.07 302.6 303.31 298.49 299.63"></polygon></g><path d="M303.72,298.12c-4.48,1.45-9.17,4.76-10,7.25a37.33,37.33,0,0,1-14.8-6.93c1.74-4.29,3.82-3.31,3.82-3.31,3.83,3.67,7.07,1.74,9.69-.7Z" style="fill:#eec1bb"></path><path d="M299.14,296.62l-6.65-2.19a13.84,13.84,0,0,1-2,1.57c1.3,1.49,4.62,2.7,6.52,1.89A7,7,0,0,0,299.14,296.62Z" style="opacity:0.2"></path><path d="M294.73,309.14c9.58-.07,19.3.14,28.83-.83a3,3,0,0,0-1.63,3.91,1.36,1.36,0,0,0,.27.44c.09.09.06,0,0-.08-3.63-3.11-8.28-5.17-12.57-7.55a2.24,2.24,0,0,1,1.69-4.13,104.4,104.4,0,0,1,11.46,4.39c2.86,1.32,7.31,3.64,5.38,7.7a4.51,4.51,0,0,1-2.93,2.15c-10,1.87-20.14,2.36-30.27,3a4.5,4.5,0,1,1-.2-9Z" style="fill:#ebc0bb"></path><path d="M314.77,296.81c-6.39,3.87-9,5.63-14.43,4.86-8.15-1.16-11.83-9.48-6.81-15.09,4.52-5.05,14.21-10.53,21.07-6.51A9.57,9.57,0,0,1,314.77,296.81Z" style="fill:#eec1bb"></path><path d="M307.6,290.64c-.52.35-1.14.37-1.39.06s0-.86.51-1.21,1.14-.37,1.39-.05S308.12,290.29,307.6,290.64Z" style="fill:#263238"></path><path d="M303.05,284.34c-.52.35-1.14.37-1.39.06s0-.86.51-1.2,1.14-.38,1.39-.06S303.57,284,303.05,284.34Z" style="fill:#263238"></path><path d="M303.63,283.3l-.53-1.4S302.58,283.14,303.63,283.3Z" style="fill:#263238"></path><path d="M303.35,287a18.37,18.37,0,0,1-4.66.5,2.51,2.51,0,0,0,1,2Z" style="fill:#d4827d"></path><path d="M299.88,293.5a5.73,5.73,0,0,1-.7-.76.16.16,0,0,1,0-.24.2.2,0,0,1,.27,0,5.19,5.19,0,0,0,4,2,.18.18,0,1,1,0,.35A5.53,5.53,0,0,1,299.88,293.5Z" style="fill:#263238"></path><path d="M311.57,289.37a.33.33,0,0,1-.08-.27,2.7,2.7,0,0,0-.91-2.38.32.32,0,0,1-.05-.49.4.4,0,0,1,.53-.05,3.36,3.36,0,0,1,1.17,3,.38.38,0,0,1-.41.32A.42.42,0,0,1,311.57,289.37Z" style="fill:#263238"></path><path d="M304.55,279.53a.34.34,0,0,1,.22-.61,3.83,3.83,0,0,1,3.19,1.17.33.33,0,0,1-.07.49.4.4,0,0,1-.53-.06,3,3,0,0,0-2.53-.9A.43.43,0,0,1,304.55,279.53Z" style="fill:#263238"></path><path d="M308.18,289.59l-.53-1.4S307.13,289.44,308.18,289.59Z" style="fill:#263238"></path><path d="M309.13,297s1.29-6.2,8.76-9.58c0,0-2.77-8.57-11.35-8.85,0,0,11.18-2.81,16,9.12s-9.7,13.37-11.41,13S309.13,297,309.13,297Z" style="fill:#263238"></path><path d="M311.22,302.22a6,6,0,0,1-4.41-1.24c-1.56-1.29-.49-3.12,1.49-3.75,1.79-.57,4.76-.58,5.59,1.19S313.22,302,311.22,302.22Z" style="fill:#eec1bb"></path><path d="M302.94,312.37s-5.12,5.57-15.49,11h0c-2.6-1.09-4.43-3.79-.75-10.57s9.59-6,9.59-6Q299.42,309.46,302.94,312.37Z" style="fill:#ebc0bb"></path><path d="M240.23,304.17s9.56,6.44,17.39,28.67l-3.47,2.77s-11.36,12.93-33.57,8.72c0,0-18.31-2.24-28.39-19.32l14.3-8.67,3.17,5,23-15.41Z" style="fill:#407BFF"></path><polygon points="206.65 312.13 189.22 322.28 192.19 326.58 208.96 317.13 206.65 312.13" style="fill:#407BFF"></polygon><polygon points="208.96 317.13 208.36 317.47 207.51 317.95 200.25 322.04 192.75 326.27 192.19 326.58 189.21 322.28 198.37 316.94 206.65 312.13 206.7 312.24 208.96 317.13" style="fill:#fff;isolation:isolate;opacity:0.7000000000000001"></polygon><path d="M220.56,344.32c-6-2.16-18.52-21.63-22.19-27.38l8.28-4.81,0,.11,1.66,5.23.6,1.89s.24.73.67,1.94C211.59,326.87,217.35,342.63,220.56,344.32Z" style="opacity:0.2"></path><path d="M144.58,344.11c6.2.07,6.83-.32,10.34-.39,3-.08,3.35.57,6.38.61,2,0,2.78-2.25,2.43-4-.21-1-.62-2.21-.81-3.49a1.37,1.37,0,0,0-1.37-1.19l-6.44-.08a1.93,1.93,0,0,0-1.36.58,13.46,13.46,0,0,1-9.52,4.38C140.82,340.78,142.1,344.08,144.58,344.11Z" style="fill:#eec1bb"></path><path d="M236,309.61l-25.59,12.9-19.15-30.32-31.75,48.64-5.17-5.21s27.39-68.5,39.81-64.39C203.07,274.18,224.58,297,236,309.61Z" style="fill:#eec1bb"></path><polygon points="206.87 319.35 232.83 304.17 237.29 310.33 209.65 323.69 206.87 319.35" style="fill:#407BFF"></polygon><polygon points="206.87 319.35 232.83 304.17 237.29 310.33 209.65 323.69 206.87 319.35" style="fill:#fff;isolation:isolate;opacity:0.7000000000000001"></polygon><path d="M248.41,267.52l9,0-1.27,7.78s-6.31.87-8.87-3.71Z" style="fill:#e4897b"></path><polygon points="263.09 270.57 260.75 276.14 256.16 275.32 257.43 267.54 263.09 270.57" style="fill:#e4897b"></polygon><path d="M83.83,283.46h23.73A18.84,18.84,0,0,1,126.4,302.3V415.47a0,0,0,0,1,0,0H65a0,0,0,0,1,0,0V302.3A18.84,18.84,0,0,1,83.83,283.46Z" style="fill:#263238"></path><path d="M83.83,283.46h23.73A18.84,18.84,0,0,1,126.4,302.3V415.47a0,0,0,0,1,0,0H65a0,0,0,0,1,0,0V302.3A18.84,18.84,0,0,1,83.83,283.46Z" style="fill:#fff;isolation:isolate;opacity:0.7000000000000001"></path><path d="M126.4,415.47H91.08V301.13a17.66,17.66,0,0,1,17.66-17.67h0a17.67,17.67,0,0,1,17.66,17.67Z" style="fill:#fff;isolation:isolate;opacity:0.2"></path><polygon points="238.59 312.62 247.19 325.49 245.09 320.33 250 323.41 238.59 312.62" style="isolation:isolate;opacity:0.2"></polygon></g><g id="freepik--Plant--inject-33"><path d="M63.43,392.28l-.78,0c0-1.16,1-28.49,5.72-33.11s10.63-.07,10.69,0l-.5.6c-.21-.17-5.26-4.28-9.65,0C64.38,364.11,63.44,392,63.43,392.28Z" style="fill:#263238"></path><path d="M63,397.76l-.78-.07c0-.33,3.07-33.18-8.83-46.84l.59-.51C66.14,364.25,63.07,397.43,63,397.76Z" style="fill:#263238"></path><path d="M63.42,394.25c-.1-1.55-2.4-38.06,6.75-46.47l.53.57c-8.87,8.16-6.53,45.48-6.5,45.85Z" style="fill:#263238"></path><path d="M62.26,394.23c0-.25-.29-24.78-6.79-28.51a4.15,4.15,0,0,0-3.79-.39c-3.81,1.58-5.84,8.86-5.86,8.93l-.76-.2c.09-.32,2.15-7.73,6.32-9.45a4.91,4.91,0,0,1,4.48.43C62.75,369,63,393.2,63,394.23Z" style="fill:#263238"></path><path d="M64.94,394.25c0-.79-1.06-19.39,4.22-26.27,1.4-1.83,3-2.72,4.64-2.58,3.75.26,6.66,5.34,6.78,5.56l-.68.38s-2.83-4.93-6.15-5.16c-1.41-.11-2.74.67-4,2.27-5.1,6.66-4.08,25.57-4.06,25.76Z" style="fill:#263238"></path><path d="M63.89,396.83l-.78-.06c0-.45,3.32-44.77-2.15-52.16l.63-.46C67.23,351.77,64,395,63.89,396.83Z" style="fill:#263238"></path><path d="M49.87,369s3.37,1.24,2.37,4.18S40.56,381,40.56,381s-4.47-4.1-.37-10.77S49.78,366.92,49.87,369Z" style="fill:#263238"></path><path d="M49.87,369s3.37,1.24,2.37,4.18S40.56,381,40.56,381s-4.47-4.1-.37-10.77S49.78,366.92,49.87,369Z" style="fill:#fff;isolation:isolate;opacity:0.2"></path><path d="M64.55,363.42s-3.6-.15-3.8,2.95,7.79,11.68,7.79,11.68,5.7-2.07,4.48-9.8S65.44,361.52,64.55,363.42Z" style="fill:#263238"></path><path d="M64.55,363.42s-3.6-.15-3.8,2.95,7.79,11.68,7.79,11.68,5.7-2.07,4.48-9.8S65.44,361.52,64.55,363.42Z" style="fill:#fff;isolation:isolate;opacity:0.2"></path><path d="M67.59,348.59s-2.4-.26-2.2-1.72,9.32-5.22,14.7.86c0,0-3.45,5.92-8.43,6S67.59,348.59,67.59,348.59Z" style="fill:#263238"></path><path d="M67.59,348.59s-2.4-.26-2.2-1.72,9.32-5.22,14.7.86c0,0-3.45,5.92-8.43,6S67.59,348.59,67.59,348.59Z" style="fill:#fff;isolation:isolate;opacity:0.2"></path><path d="M63.12,345s2.18,1,2.78-.29S60.75,335.39,53,337.7c0,0-.21,6.85,4,9.55S63.12,345,63.12,345Z" style="fill:#263238"></path><path d="M63.12,345s2.18,1,2.78-.29S60.75,335.39,53,337.7c0,0-.21,6.85,4,9.55S63.12,345,63.12,345Z" style="fill:#fff;isolation:isolate;opacity:0.2"></path><path d="M74.48,367.84s-1.66-1.34.13-2,10.54-.47,10.64,8.21c0,0-10.21,1.7-11.47-1.61S74.48,367.84,74.48,367.84Z" style="fill:#263238"></path><path d="M74.48,367.84s-1.66-1.34.13-2,10.54-.47,10.64,8.21c0,0-10.21,1.7-11.47-1.61S74.48,367.84,74.48,367.84Z" style="fill:#fff;isolation:isolate;opacity:0.2"></path><path d="M53.67,348.37s1.65-1.33-.13-2S43,345.92,42.9,354.6c0,0,10.2,1.69,11.46-1.61S53.67,348.37,53.67,348.37Z" style="fill:#263238"></path><path d="M53.67,348.37s1.65-1.33-.13-2S43,345.92,42.9,354.6c0,0,10.2,1.69,11.46-1.61S53.67,348.37,53.67,348.37Z" style="fill:#fff;isolation:isolate;opacity:0.2"></path><path d="M59.06,355.36s.15-1.62-1.16-1-5.88,5.56-1.15,10.24c0,0,6.38-4.72,5.23-7.18S59.06,355.36,59.06,355.36Z" style="fill:#263238"></path><path d="M59.06,355.36s.15-1.62-1.16-1-5.88,5.56-1.15,10.24c0,0,6.38-4.72,5.23-7.18S59.06,355.36,59.06,355.36Z" style="fill:#fff;isolation:isolate;opacity:0.2"></path><path d="M76,357.68s-1-1.3.46-1.46,7.94,1.57,6.43,8c0,0-7.91-.59-8.24-3.28S76,357.68,76,357.68Z" style="fill:#263238"></path><path d="M76,357.68s-1-1.3.46-1.46,7.94,1.57,6.43,8c0,0-7.91-.59-8.24-3.28S76,357.68,76,357.68Z" style="fill:#fff;isolation:isolate;opacity:0.2"></path><polygon points="49.24 418.29 76.37 418.29 79.3 388.58 46.31 388.58 49.24 418.29" style="fill:#407BFF"></polygon><rect x="44.86" y="385.3" width="35.89" height="6.56" transform="translate(125.61 777.15) rotate(180)" style="fill:#407BFF"></rect><rect x="44.86" y="385.3" width="35.89" height="6.56" transform="translate(125.61 777.15) rotate(180)" style="fill:#fff;isolation:isolate;opacity:0.2"></rect></g><g id="freepik--Hearts--inject-33"><path d="M281.52,165.89c5-4.09,10.4,0,12.17,5.11,4.54-2.95,11.33-2.85,12.75,3.44,2.38,10.59-11.5,14.89-17.84,16.27l-1.8.39c-.33-.38-.72-.85-1.19-1.41C281.46,184.71,273.13,172.8,281.52,165.89Z" style="fill:#407BFF"></path><path d="M334.32,206.82c3.68-3.27,7.94-.31,9.44,3.54,3.38-2.39,8.56-2.51,9.83,2.25,2.14,8-8.34,11.71-13.13,12.95l-1.37.35-.95-1C334.83,221.19,328.12,212.34,334.32,206.82Z" style="fill:#407BFF"></path><path d="M320.14,254.11c1.2-.9,2.43.1,2.79,1.31,1.09-.64,2.67-.55,2.94.93.45,2.49-2.83,3.36-4.32,3.62l-.43.07-.26-.34C319.94,258.5,318.12,255.64,320.14,254.11Z" style="fill:#407BFF"></path><path d="M227.1,210.51c1-3.93,5.28-3.88,8.09-1.95,1.2-3.19,4.68-5.67,7.75-3,5.16,4.5-.28,11.86-3,14.92-.3.35-.55.64-.77.87l-1.13-.28C234.09,220.09,225.42,217.15,227.1,210.51Z" style="fill:#407BFF"></path><path d="M345,247.43c1.23-2,3.6-1.26,4.84.3,1.22-1.57,3.58-2.35,4.83-.34,2.11,3.39-2.19,6.55-4.22,7.8l-.58.35-.58-.35C347.21,254,342.89,250.84,345,247.43Z" style="fill:#407BFF"></path><path d="M345,247.43c1.23-2,3.6-1.26,4.84.3,1.22-1.57,3.58-2.35,4.83-.34,2.11,3.39-2.19,6.55-4.22,7.8l-.58.35-.58-.35C347.21,254,342.89,250.84,345,247.43Z" style="fill:#fff;opacity:0.6"></path><path d="M246.71,179.75c.24-2.35,2.71-2.69,4.5-1.82.41-1.94,2.21-3.68,4.21-2.41,3.36,2.15.86,6.86-.43,8.86l-.37.57-.68-.06C251.57,184.67,246.31,183.72,246.71,179.75Z" style="fill:#407BFF"></path><path d="M246.71,179.75c.24-2.35,2.71-2.69,4.5-1.82.41-1.94,2.21-3.68,4.21-2.41,3.36,2.15.86,6.86-.43,8.86l-.37.57-.68-.06C251.57,184.67,246.31,183.72,246.71,179.75Z" style="fill:#fff;opacity:0.6"></path><path d="M312.71,218.26c.69-.94,1.83-.46,2.36.37.67-.72,1.88-1,2.4.05.88,1.76-1.38,3.12-2.43,3.64l-.31.15-.27-.2C313.51,221.58,311.53,219.84,312.71,218.26Z" style="fill:#407BFF"></path><path d="M312.71,218.26c.69-.94,1.83-.46,2.36.37.67-.72,1.88-1,2.4.05.88,1.76-1.38,3.12-2.43,3.64l-.31.15-.27-.2C313.51,221.58,311.53,219.84,312.71,218.26Z" style="fill:#fff;opacity:0.6"></path><path d="M206.21,240.33c-.64-1.92,1.17-3.06,2.88-3-.36-1.67.43-3.66,2.44-3.37,3.39.49,3.09,5.06,2.78,7.08,0,.23-.06.42-.08.57l-.55.19C211.74,242.47,207.3,243.58,206.21,240.33Z" style="fill:#407BFF"></path><path d="M206.21,240.33c-.64-1.92,1.17-3.06,2.88-3-.36-1.67.43-3.66,2.44-3.37,3.39.49,3.09,5.06,2.78,7.08,0,.23-.06.42-.08.57l-.55.19C211.74,242.47,207.3,243.58,206.21,240.33Z" style="fill:#fff;opacity:0.6"></path></g><g id="freepik--Cat--inject-33"><path d="M170.17,393.36c14.18-5.85,37.86-3.32,48.74,9s5.66,15.92-8.7,16.35-50.6,1-52.39-.87C156.33,416.23,149.28,402,170.17,393.36Z" style="fill:#407BFF"></path><path d="M175.61,400.84a11.36,11.36,0,0,1,5.26-4.93s1.18,6.68,0,8.71c0,0,2.62,4,2.18,7-.27,1.9-3,4.84-3.83,6.24-.22.37-3.52,1-4.93.61-.76-.21-7.94-.05-8.93-.23s-3.26-2.32-3.26-2.32l1.33,2.81,10.56.39,14.7,0s-4.32-1.3-4-3.68,7-4,12.62-2.53,18.57,0,18-4.5-5.66-3.77-5.66-3.77,2.9,2.61,2.76,4.21-7.84,4.35-11.46,3.34-8-5.95-7.84-8.27,3.48-3.34,3.48-3.34-4.6-.8-6,.8-.67,6.89-.67,6.89h-2.32s-1.35-4.06-3.77-5.8c0,0,.29-6.43-1.6-8.66C182.21,393.79,177.42,393.86,175.61,400.84Z" style="isolation:isolate;opacity:0.2"></path><path d="M165.38,403.61s-1.45-1.24-5.36-1.27c0,0-1.31,3.44,0,5.91,0,0,.29-2.61,1.45-3.63A4.88,4.88,0,0,1,165.38,403.61Z" style="isolation:isolate;opacity:0.2"></path><path d="M180,413.69a2.63,2.63,0,0,1-1.17-.31.23.23,0,0,1-.1-.3A.21.21,0,0,1,179,413a1.62,1.62,0,0,0,1.55.12c.89-.5,1-2.11,1-2.12a.22.22,0,0,1,.23-.2.21.21,0,0,1,.2.23c0,.08-.16,1.86-1.25,2.47A1.66,1.66,0,0,1,180,413.69Z" style="fill:#263238"></path><path d="M171.4,416.45a4.37,4.37,0,0,1-2.36-.85.22.22,0,1,1,.24-.36,3.2,3.2,0,0,0,2.81.66,2.92,2.92,0,0,0,1.5-1.76.21.21,0,0,1,.27-.15.22.22,0,0,1,.15.27,3.27,3.27,0,0,1-1.76,2A2.41,2.41,0,0,1,171.4,416.45Z" style="fill:#263238"></path><polygon points="178.88 416.68 177.06 417.24 178.22 417.82 178.88 416.68" style="isolation:isolate;opacity:0.4"></polygon></g></svg>
